<svg xmlns="http://www.w3.org/2000/svg" width="815.838" height="731.05" viewBox="0 0 815.838 731.05">
  <g id="undraw_ideas_s70l" transform="translate(-0.399 -0.509)">
    <g id="idea1">
      <path id="Path_1" data-name="Path 1" d="M443.693,415.653a146.9,146.9,0,1,0-68.158,54.725,47.518,47.518,0,1,0,68.159-54.725Z" transform="translate(-174.5 -76.973)" fill="#6c63ff"/>
      <rect id="Rectangle_1" data-name="Rectangle 1" width="174.746" height="13.796" transform="translate(59.781 227.304)" fill="#fff"/>
      <rect id="Rectangle_2" data-name="Rectangle 2" width="174.746" height="13.796" transform="translate(59.781 250.297)" fill="#fff"/>
      <rect id="Rectangle_3" data-name="Rectangle 3" width="174.746" height="13.796" transform="translate(59.781 273.29)" fill="#fff"/>
    </g>
    <g id="idea2">
      <path id="Path_2" data-name="Path 2" d="M756.307,306.379A146.9,146.9,0,1,1,824.466,361.1a47.518,47.518,0,1,1-68.159-54.725Z" transform="translate(-208.865 -76.973)" fill="#6c63ff"/>
      <rect id="Rectangle_4" data-name="Rectangle 4" width="174.746" height="13.796" transform="translate(756.853 131.826) rotate(180)" fill="#fff"/>
      <rect id="Rectangle_5" data-name="Rectangle 5" width="174.746" height="13.796" transform="translate(756.853 154.819) rotate(180)" fill="#fff"/>
      <rect id="Rectangle_6" data-name="Rectangle 6" width="174.746" height="13.796" transform="translate(756.853 177.812) rotate(180)" fill="#fff"/>
    </g>
    <g id="human">
      <path id="Path_3" data-name="Path 3" d="M501.213,708.464a82.013,82.013,0,1,1,38.052,30.552,26.529,26.529,0,1,1-38.052-30.552Z" transform="translate(-190.141 -76.973)" fill="#6c63ff"/>
      <circle id="Ellipse_4" data-name="Ellipse 4" cx="9.491" cy="9.491" r="9.491" transform="translate(400.564 574.349)" fill="#fff"/>
      <circle id="Ellipse_3" data-name="Ellipse 3" cx="9.491" cy="9.491" r="9.491" transform="translate(369.522 574.349)" fill="#fff"/>
      <circle id="Ellipse_2" data-name="Ellipse 2" cx="9.491" cy="9.491" r="9.491" transform="translate(338.48 574.349)" fill="#fff"/>
      <path id="Path_4" data-name="Path 4" d="M578.936,366.381s42.346,1.151,49.34,3.7,10.121,20.74,10.121,20.74l-32.879,10.334-24.592-1.393-18.508,1.308L572.753,374Z" transform="translate(-191.701 -76.973)" fill="#2f2e41"/>
      <path id="Path_5" data-name="Path 5" d="M580.763,352.486s2.786,10.761-3.4,18.38,26.582,34.769,26.582,34.769l17.285-2.971s-3.81-33.064,1.308-41.437S580.763,352.486,580.763,352.486Z" transform="translate(-191.672 -76.973)" fill="#9f616a"/>
      <path id="Path_6" data-name="Path 6" d="M580.763,352.486s2.786,10.761-3.4,18.38,26.582,34.769,26.582,34.769l17.285-2.971s-3.81-33.064,1.308-41.437S580.763,352.486,580.763,352.486Z" transform="translate(-191.672 -76.973)" opacity="0.1"/>
      <path id="Path_7" data-name="Path 7" d="M521.22,590.132l-38.139,50.577,26.028,15.2L544.931,597.3Z" transform="translate(-21.04)" fill="#9f616a"/>
      <path id="Path_8" data-name="Path 8" d="M668.968,718.535s-14.044-16.319-13.419-12.68-9.993,34.5-.114,37.485,94.6,10.9,95.766,1.336-25.275-16.262-25.275-16.262-15.708-15.1-19.19-13.561S668.968,718.535,668.968,718.535Z" transform="translate(-196.319 -76.973)" fill="#2f2e41"/>
      <path id="Path_9" data-name="Path 9" d="M512.663,638.435l30.463,51.9,23-13.319-30.718-42.489Z" transform="translate(-22.095)" fill="#9f616a"/>
      <path id="Path_10" data-name="Path 10" d="M735.252,591.936l-9.041,12.794s-43.1,59.859-38.522,64.692,23.64,23.1,33.334,19.56,44.137-64.721,44.137-64.721l-8.984-35.921Z" transform="translate(-197.3 -76.973)" fill="#2f2e41"/>
      <path id="Path_11" data-name="Path 11" d="M549.59,579.826s9.652,18.01,34.116,24.109,50.023,18.565,50.932,18.408,3.483-1.535,4.108,2.1,7.335,9.979,7.335,9.979,27.023,91.829,37.343,91.928,31.529-7.292,31.969-10.178-31.6-96.662-31.913-98.481l-3.753-21.834s42.375,6.766,46.327,7.96,39.105,20.441,39.105,20.441,35.836-25.829,2.317-51.913-91.132-45.217-91.132-45.217l-20.669-5.814-18.013-1.075-2.652-10.171-42.662,2.461-44.521,18.892Z" transform="translate(-195.297 -76.973)" fill="#2f2e41"/>
      <path id="Path_12" data-name="Path 12" d="M575.83,367.383l4-.687s7.219,27.795,29.551,32.386c0,0,11.019-13.2,10.549-15.428s8.727-14.111,13.617-7.458-1.194,123.841,2.914,125.945,12.921,4.336,5.828,12.111-35.267,18.238-41.508,14.627-18.991-34.2-24.507-44.493-14.343-45.3-14.343-45.3-11.273-38.338-4.336-47.023S575.83,367.383,575.83,367.383Z" transform="translate(-191.689 -76.973)" fill="#d0cde1"/>
      <path id="Path_13" data-name="Path 13" d="M607.635,511.654a189.586,189.586,0,0,1-3.807,24.268c-1.63,6.508-3.527,10.437-5.693,10.27-5.526-.413-8.037,7.691-9.332,17.035-1.384,9.913-1.384,21.221-2.143,25.217-1,5.28-7.434,9.31-20.283,8.127a90.661,90.661,0,0,1-22.348-5.481c-17.347-6.307-16.834-57.455-13.931-95.409,1.775-23.263,4.443-41.582,4.443-41.582s-5.269-15.717-6.954-26.49a35.212,35.212,0,0,1-.5-5.95c.257-9.41,17.436-34.839,27.818-50.679s24.57-4.22,24.57-4.22l-4.934,14.891s7.647,11.8,7.7,23.029,18.307,19.334,24.86,24.77C611.218,432.866,611.117,478.466,607.635,511.654Z" transform="translate(-190.278 -76.973)" fill="#2f2e41"/>
      <path id="Path_14" data-name="Path 14" d="M622.064,372.081s1.2,1.416,6.681.725c6.576-.828,15.618,1.447,17.719,7.726,3.852,11.514,14.713,58.352,14.713,58.352s4.521,53.548,6.553,65.375,1.024,22.3,3.028,28.515-19.787-11.585-27.819-9.268-13.192-27.7-12.182-38.181,1.862-21.863-.924-32.623,2.153-39.24,1.969-45.765S614.092,383.967,622.064,372.081Z" transform="translate(-193.636 -76.973)" fill="#2f2e41"/>
      <path id="Path_15" data-name="Path 15" d="M645.578,538.507s35.186,19.2,38.553,46.518-47.062-26.455-47.062-26.455Z" transform="translate(-194.279 -76.973)" fill="#9f616a"/>
      <path id="Path_16" data-name="Path 16" d="M665.664,519.132s10.782,54.345,27.577,51.458S683.859,516,683.859,516Z" transform="translate(-195.143 -76.973)" fill="#9f616a"/>
      <path id="Path_18" data-name="Path 18" d="M639.973,571.743c-8.16-5.76-30.943-7.189-51.171-8.517-8.874-.569-17.258-1.127-23.7-2.032-6.207-.86-11.788-6.53-16.744-14.981-7.513-12.8-13.585-32-18.262-50.534,1.775-23.263,4.443-41.582,4.443-41.582s-5.269-15.717-6.954-26.49a14.176,14.176,0,0,1,4.487-4.041c21.455-9.209,41.939,81.422,44.54,95.644.045.234.078.458.112.647,1.261,7.323,14.891,13.585,27.1,16.063,7.524,1.529,14.523,1.63,17.749-.357,8.473-5.2,34.527,15.617,36.5,16.208S651.694,580.037,639.973,571.743Z" transform="translate(-191.347 -76.973)" opacity="0.1"/>
      <path id="Path_20" data-name="Path 20" d="M644.446,401.484l17.138,39.767s1.725-.861,3.73,5.351,2.943,11.671,6.454,15.75,19.133,62.276,19.6,65.005-21.577,12.138-26.5,4.555S644.446,401.484,644.446,401.484Z" transform="translate(-194.588 -76.973)" fill="#2f2e41"/>
      <circle id="Ellipse_5" data-name="Ellipse 5" cx="33.231" cy="33.231" r="33.231" transform="translate(380.723 230.469)" fill="#9f616a"/>
      <path id="Path_17" data-name="Path 17" d="M723.184,756.048s-8.6,9.908-10.732,8.4-7.036,19.005-2.615,22.929,21.45,10.363,21.635,16.887,45.857,5.231,47.492-1.606-5.729-22.431-10.9-25.288-24.306-29.155-24.306-29.155S728.77,750.405,723.184,756.048Z" transform="translate(-198.018 -76.973)" fill="#2f2e41"/>
      <path id="Path_19" data-name="Path 19" d="M532.077,417.988s-15.594,7.363-8.742,41.778,20.655,92.923,41.764,95.851,63.143,2.26,74.87,10.547,20.086-19.375,18.11-19.972-28.032-21.408-36.5-16.205-42.815-3.881-44.848-15.707S553.882,408.621,532.077,417.988Z" transform="translate(-191.2 -76.973)" fill="#2f2e41"/>
      <path id="Path_21" data-name="Path 21" d="M586.988,340.21c1.274-.34,1.461-2.031,1.5-3.348.229-7.055,4.477-14.3,11.231-16.349a18.881,18.881,0,0,1,7.959-.438,30.146,30.146,0,0,1,10.778,3.6c1.759.989,3.484,2.18,5.48,2.482,1.318.2,7.023,1.858,8.335,2.092,2.885.513,5.566,3.094,8.334,2.134,2.648-.919,3.235-4.348,3.3-7.15.146-6.385-4.7-15.221-8.97-19.971-3.24-3.6-8.118-5.268-12.886-6.133A85.787,85.787,0,0,0,605.2,296.1c-7.631.136-15.474.725-22.355,4.027s-12.661,9.874-12.991,17.5c-.069,1.588.1,3.183-.038,4.768-.326,3.865-2.378,7.356-3.341,11.113a20.334,20.334,0,0,0,2.84,16.25c2.554,3.758,6.568,7.157,6.42,11.7l5.537-5.737a4.547,4.547,0,0,0,1.352-5.556l-1.96-7.645a6.9,6.9,0,0,1-.17-4.255C582.593,333.07,584.865,340.777,586.988,340.21Z" transform="translate(-191.9 -76.973)" fill="#2f2e41"/>
    </g>
    <g id="plant">
      <path id="Path_22" data-name="Path 22" d="M838.646,722.549c-.229-.375-5.641-9.41-7.517-28.172-1.721-17.213-.614-46.227,14.433-86.7,28.506-76.671-6.569-138.533-6.928-139.149l1.73-1c.091.156,9.142,15.929,14.488,41.044a179.061,179.061,0,0,1-7.416,99.807c-28.457,76.54-7.3,112.773-7.084,113.131Z" transform="translate(-201.91 -76.973)" fill="#3f3d56"/>
      <circle id="Ellipse_6" data-name="Ellipse 6" cx="13" cy="13" r="13" transform="translate(613.332 361.054)" fill="#6c63ff"/>
      <circle id="Ellipse_7" data-name="Ellipse 7" cx="13" cy="13" r="13" transform="translate(646.635 409.054)" fill="#3f3d56"/>
      <circle id="Ellipse_8" data-name="Ellipse 8" cx="13" cy="13" r="13" transform="translate(625.79 441.054)" fill="#6c63ff"/>
      <circle id="Ellipse_9" data-name="Ellipse 9" cx="13" cy="13" r="13" transform="translate(652.635 468.054)" fill="#6c63ff"/>
      <circle id="Ellipse_10" data-name="Ellipse 10" cx="13" cy="13" r="13" transform="translate(616.207 510.054)" fill="#3f3d56"/>
      <path id="Path_23" data-name="Path 23" d="M846.5,723.027s-13-32,26-56Z" transform="translate(-202.486 -76.973)" fill="#3f3d56"/>
      <path id="Path_24" data-name="Path 24" d="M830.512,722.447S824.6,688.418,778.8,688.709Z" transform="translate(-200.49 -76.973)" fill="#3f3d56"/>
    </g>
  </g>
</svg>
